<?xml version="1.0" standalone="no"?>
<!DOCTYPE svg PUBLIC "-//W3C//DTD SVG 20010904//EN"
 "http://www.w3.org/TR/2001/REC-SVG-20010904/DTD/svg10.dtd">
<svg version="1.0" xmlns="http://www.w3.org/2000/svg"
 width="175.000000pt" height="176.000000pt" viewBox="0 0 175.000000 176.000000"
 preserveAspectRatio="xMidYMid meet">
<metadata>
Created by potrace 1.15, written by Peter Selinger 2001-2017
</metadata>
<g transform="translate(0.000000,176.000000) scale(0.100000,-0.100000)"
fill="#000000" stroke="none">
<path d="M255 1285 l-25 -24 0 -311 c0 -297 1 -311 20 -330 26 -26 62 -25 86
1 17 19 19 41 22 237 l3 216 148 -225 c149 -225 171 -249 224 -249 63 1 67 20
67 364 0 293 -1 307 -20 326 -25 25 -62 26 -83 2 -15 -16 -17 -48 -17 -240 0
-122 -3 -222 -7 -222 -5 0 -73 100 -153 222 -79 122 -153 230 -164 240 -28 26
-72 23 -101 -7z"/>
<path d="M980 1272 l-25 -20 0 -307 0 -307 24 -19 c30 -25 66 -24 91 1 18 18
20 33 20 151 l0 131 60 -4 c76 -5 99 -26 187 -171 36 -59 74 -112 84 -117 46
-25 99 2 99 49 0 39 -62 143 -120 203 l-55 57 37 11 c45 13 93 52 113 91 8 15
15 52 15 81 0 71 -31 125 -90 158 -43 24 -54 25 -230 28 -173 3 -188 2 -210
-16z m365 -122 c36 -34 32 -94 -8 -124 -24 -18 -46 -22 -138 -24 l-109 -4 0
92 0 92 114 -4 c106 -3 116 -5 141 -28z"/>
</g>
</svg>
